# xmcd
#
# Track frame offsets:
#	150
#	10417
#	21312
#	33200
#	43612
#	55510
#	64990
#	77600
#	88792
#	101612
#
# Disc length: 1486 seconds
#
# Revision: 1
# Processed by: cddbd v1.5.2PL0 Copyright (c) Steve Scherf et al.
# Submitted via: EasyCDDAExtractor 7.0.3.1
#
DISCID=7505cc0a
DTITLE=Pee Wee King - Hall of Fame
DYEAR=1998
DGENRE=Country
TTITLE0=Slow Poke
TTITLE1=Tennessee Waltz
TTITLE2=When the lights Go Dim Down Town
TTITLE3=Twenty Four Months
TTITLE4=Stay Away From Me
TTITLE5=Bonaparte's Retreat
TTITLE6=You Belong To Me
TTITLE7=Waitin
TTITLE8=It Hurts A Lot
TTITLE9=Goodbye New Orleans
EXTD=
EXTT0=
EXTT1=
EXTT2=
EXTT3=
EXTT4=
EXTT5=
EXTT6=
EXTT7=
EXTT8=
EXTT9=
PLAYORDER=
